# xmcd
#
# Track frame offsets: 
#        150
#        21357
#        41907
#        57400
#        74615
#        94045
#        112020
#        142637
#        161827
#        184912
#
# Disc length: 2679 seconds
#
# Revision: 7
# Processed by: cddbd v1.5.2PL0 Copyright (c) Steve Scherf et al.
# Submitted via: ExactAudioCopy v0.99pb4
#
DISCID=910a750a
DTITLE=Oslo Gospel Choir - Power
DYEAR=1999
DGENRE=Gospel
TTITLE0=Power
TTITLE1=When You Believe
TTITLE2=The New Milennium
TTITLE3=Free
TTITLE4=There's A Light
TTITLE5=It's Allright
TTITLE6=In His Hands
TTITLE7=Chosen
TTITLE8=My Life Is In His Hands
TTITLE9=Santo
EXTD=YEAR: 1999
EXTT0=
EXTT1=
EXTT2=
EXTT3=
EXTT4=
EXTT5=
EXTT6=
EXTT7=
EXTT8=
EXTT9=
PLAYORDER=
